<?xml version="1.0" encoding="UTF-8" standalone="no"?>
<svg
   xmlns:dc="http://purl.org/dc/elements/1.1/"
   xmlns:cc="http://creativecommons.org/ns#"
   xmlns:rdf="http://www.w3.org/1999/02/22-rdf-syntax-ns#"
   xmlns:svg="http://www.w3.org/2000/svg"
   xmlns="http://www.w3.org/2000/svg"
   xmlns:sodipodi="http://sodipodi.sourceforge.net/DTD/sodipodi-0.dtd"
   xmlns:inkscape="http://www.inkscape.org/namespaces/inkscape"
   id="svg4"
   version="1.1"
   viewBox="-1 -1 52 52"
   sodipodi:docname="litags_icon_v2.svg"
   inkscape:version="0.92.4 (5da689c313, 2019-01-14)">
  <sodipodi:namedview
     pagecolor="#ffffff"
     bordercolor="#666666"
     borderopacity="1"
     objecttolerance="10"
     gridtolerance="10"
     guidetolerance="10"
     inkscape:pageopacity="0"
     inkscape:pageshadow="2"
     inkscape:window-width="1920"
     inkscape:window-height="1017"
     id="namedview7"
     showgrid="false"
     inkscape:pagecheckerboard="true"
     inkscape:zoom="12.836708"
     inkscape:cx="22.922714"
     inkscape:cy="18.434936"
     inkscape:window-x="1912"
     inkscape:window-y="-8"
     inkscape:window-maximized="1"
     inkscape:current-layer="svg4" />
  <metadata
     id="metadata10">
    <rdf:RDF>
      <cc:Work
         rdf:about="">
        <dc:format>image/svg+xml</dc:format>
        <dc:type
           rdf:resource="http://purl.org/dc/dcmitype/StillImage" />
        <dc:title></dc:title>
      </cc:Work>
    </rdf:RDF>
  </metadata>
  <defs
     id="defs8">
    <filter
       style="color-interpolation-filters:sRGB"
       inkscape:label="Colorize"
       id="filter840">
      <feComposite
         k4="0"
         k3="0"
         in2="SourceGraphic"
         operator="arithmetic"
         k1="0"
         k2="1"
         result="composite1"
         id="feComposite826" />
      <feColorMatrix
         in="composite1"
         values="1"
         type="saturate"
         result="colormatrix1"
         id="feColorMatrix828" />
      <feFlood
         flood-opacity="0"
         flood-color="rgb(54,146,231)"
         result="flood1"
         id="feFlood830" />
      <feBlend
         in="flood1"
         in2="colormatrix1"
         mode="multiply"
         result="blend1"
         id="feBlend832" />
      <feBlend
         in2="blend1"
         mode="screen"
         result="blend2"
         id="feBlend834" />
      <feColorMatrix
         in="blend2"
         values="1"
         type="saturate"
         result="colormatrix2"
         id="feColorMatrix836" />
      <feComposite
         in="colormatrix2"
         in2="SourceGraphic"
         operator="in"
         result="fbSourceGraphic"
         id="feComposite838" />
      <feColorMatrix
         result="fbSourceGraphicAlpha"
         in="fbSourceGraphic"
         values="0 0 0 -1 0 0 0 0 -1 0 0 0 0 -1 0 0 0 0 1 0"
         id="feColorMatrix842" />
      <feComposite
         k4="0"
         k3="0"
         in2="fbSourceGraphic"
         id="feComposite844"
         operator="arithmetic"
         k1="0"
         k2="1"
         result="composite1"
         in="fbSourceGraphic" />
      <feColorMatrix
         id="feColorMatrix846"
         in="composite1"
         values="1"
         type="saturate"
         result="colormatrix1" />
      <feFlood
         id="feFlood848"
         flood-opacity="0"
         flood-color="rgb(54,146,231)"
         result="flood1" />
      <feBlend
         in2="colormatrix1"
         id="feBlend850"
         in="flood1"
         mode="multiply"
         result="blend1" />
      <feBlend
         in2="blend1"
         id="feBlend852"
         mode="screen"
         result="blend2" />
      <feColorMatrix
         id="feColorMatrix854"
         in="blend2"
         values="1"
         type="saturate"
         result="colormatrix2" />
      <feComposite
         in2="fbSourceGraphic"
         id="feComposite856"
         in="colormatrix2"
         operator="in"
         result="composite2" />
    </filter>
  </defs>
  <path
     style="color:#000000;font-style:normal;font-variant:normal;font-weight:normal;font-stretch:normal;font-size:medium;line-height:normal;font-family:sans-serif;font-variant-ligatures:normal;font-variant-position:normal;font-variant-caps:normal;font-variant-numeric:normal;font-variant-alternates:normal;font-feature-settings:normal;text-indent:0;text-align:start;text-decoration:none;text-decoration-line:none;text-decoration-style:solid;text-decoration-color:#000000;letter-spacing:normal;word-spacing:normal;text-transform:none;writing-mode:lr-tb;direction:ltr;text-orientation:mixed;dominant-baseline:auto;baseline-shift:baseline;text-anchor:start;white-space:normal;shape-padding:0;clip-rule:nonzero;display:inline;overflow:visible;visibility:visible;opacity:1;isolation:auto;mix-blend-mode:normal;color-interpolation:sRGB;color-interpolation-filters:linearRGB;solid-color:#000000;solid-opacity:1;vector-effect:none;fill:#000000;fill-opacity:1;fill-rule:nonzero;stroke:#000000;stroke-width:1;stroke-linecap:butt;stroke-linejoin:round;stroke-miterlimit:4;stroke-dasharray:none;stroke-dashoffset:0;stroke-opacity:1;color-rendering:auto;image-rendering:auto;shape-rendering:auto;text-rendering:auto;enable-background:accumulate"
     d="m 40.349605,3.187558 c -0.04071,3.179e-4 -0.0807,0.00272 -0.121093,0.00781 -2.897821,0.3429938 -5.519336,0.8460419 -8.039063,2.5527344 -3.27459,-0.2064576 -6.194436,-0.018643 -8.783203,0.4824219 v 4.0273427 c 2.568464,-0.5289165 5.347445,-0.5018625 8.261719,0.04102 0.245224,0.04583 0.497384,0.0026 0.71289,-0.123047 1.50144,-0.8757555 3.028001,-1.6444816 4.398438,-2.1113274 l -0.802735,2.3027344 c -0.101108,0.290371 -0.06785,0.609096 0.08984,0.873046 l 10.691406,17.91211 c -0.228315,1.892935 -1.060166,2.843285 -1.917968,3.380859 -0.617178,0.386778 -0.874967,0.376998 -1.183594,0.439453 -0.640291,-1.199166 -1.620595,-2.490955 -3.880859,-4.669922 -0.820338,-0.791078 -2.097589,-1.647512 -3.607422,-2.669922 -1.509835,-1.02241 -3.23026,-2.177255 -4.798828,-3.392578 -1.568569,-1.215323 -2.982024,-2.499758 -3.867188,-3.699218 -0.885163,-1.199461 -1.195875,-2.201753 -0.953125,-3.074219 0.377053,-1.333613 -1.6249,-1.898067 -2.001953,-0.564453 -7.82e-4,0.0027 7.77e-4,0.0051 0,0.0078 h -0.002 c -0.0023,0.0082 0.0023,0.01521 0,0.02344 -0.504709,1.796182 -0.08069,3.599444 0.794922,5.205078 0.880934,1.615387 2.207993,3.09824 3.662109,4.46875 2.908234,2.741023 6.408316,5.090609 7.845703,6.443359 v 0.002 c 3.124608,2.938998 4.567743,5.152133 4.746094,5.498047 0.223805,0.433826 0.719736,0.653121 1.191406,0.527344 0,0 2.143913,-0.557483 4.160156,-1.894531 1.00812,-0.668524 2.009566,-1.542672 2.689454,-2.710938 0.679889,-1.168268 0.991958,-2.658365 0.599609,-4.279297 -0.02153,-0.08994 -0.05515,-0.174766 -0.09961,-0.255859 L 40.123043,9.779355 41.363277,4.4629486 C 41.51633,3.8105294 41.019736,3.1869263 40.349605,3.187558 Z M 6.4999956,28.187557 c 0.024011,0.285334 0.033174,0.579784 0.068359,0.857422 6.638e-4,0.0027 0.00122,0.0051 0.00195,0.0078 2.5175245,18.65156 27.7982104,23.888547 36.5585934,11.132813 0.03573,-0.05202 0.08201,-0.08996 0.117188,-0.142578 0.713196,-1.054448 -0.730957,-2.220268 -1.611328,-1.300781 -6.020035,6.220987 -15.590881,7.079155 -22.9375,2.478515 -4.670322,-2.924664 -7.811587,-7.823867 -8.404293,-13.033191 z"
     id="path2"
     inkscape:connector-curvature="0" />
  <path
     inkscape:connector-curvature="0"
     style="fill:#0385e7;stroke-width:0.04910714;fill-opacity:1"
     d="M 18.642855,4.0000003 H 1.3571461 C 0.055802,4.0000003 -1,5.0558023 -1,6.3571464 V 23.642854 C -1,24.944198 0.055802,26 1.3571461,26 H 18.642855 c 1.301344,0 2.357146,-1.055802 2.357146,-2.357146 V 6.3571464 c 0,-1.3013441 -1.055802,-2.3571461 -2.357146,-2.3571461 z M 17.071431,16.375 c 0,0.324104 -0.26518,0.589284 -0.589284,0.589284 h -4.517862 v 4.517862 c 0,0.324104 -0.265181,0.589285 -0.589285,0.589285 H 8.6250002 c -0.324104,0 -0.5892846,-0.265181 -0.5892846,-0.589285 V 16.964284 H 3.5178541 c -0.324104,0 -0.5892846,-0.26518 -0.5892846,-0.589284 v -2.75 c 0,-0.324104 0.2651806,-0.589284 0.5892846,-0.589284 H 8.0357156 V 8.5178545 c 0,-0.3241041 0.2651806,-0.5892847 0.5892846,-0.5892847 H 11.375 c 0.324104,0 0.589285,0.2651806 0.589285,0.5892847 v 4.5178615 h 4.517862 c 0.324104,0 0.589284,0.26518 0.589284,0.589284 z"
     id="path2-2" />
</svg>
