<?xml version="1.0" encoding="UTF-8" standalone="no"?>
<svg
   xmlns:dc="http://purl.org/dc/elements/1.1/"
   xmlns:cc="http://creativecommons.org/ns#"
   xmlns:rdf="http://www.w3.org/1999/02/22-rdf-syntax-ns#"
   xmlns:svg="http://www.w3.org/2000/svg"
   xmlns="http://www.w3.org/2000/svg"
   xmlns:sodipodi="http://sodipodi.sourceforge.net/DTD/sodipodi-0.dtd"
   xmlns:inkscape="http://www.inkscape.org/namespaces/inkscape"
   id="svg4"
   version="1.1"
   viewBox="-1 -1 52 52"
   sodipodi:docname="litags_icon.svg"
   inkscape:version="0.92.4 (5da689c313, 2019-01-14)">
  <sodipodi:namedview
     pagecolor="#ffffff"
     bordercolor="#666666"
     borderopacity="1"
     objecttolerance="10"
     gridtolerance="10"
     guidetolerance="10"
     inkscape:pageopacity="0"
     inkscape:pageshadow="2"
     inkscape:window-width="1920"
     inkscape:window-height="1017"
     id="namedview7"
     showgrid="false"
     inkscape:pagecheckerboard="true"
     inkscape:zoom="4.5384616"
     inkscape:cx="-37.332139"
     inkscape:cy="10.806013"
     inkscape:window-x="1912"
     inkscape:window-y="-8"
     inkscape:window-maximized="1"
     inkscape:current-layer="svg4" />
  <metadata
     id="metadata10">
    <rdf:RDF>
      <cc:Work
         rdf:about="">
        <dc:format>image/svg+xml</dc:format>
        <dc:type
           rdf:resource="http://purl.org/dc/dcmitype/StillImage" />
        <dc:title />
      </cc:Work>
    </rdf:RDF>
  </metadata>
  <defs
     id="defs8">
    <filter
       style="color-interpolation-filters:sRGB"
       inkscape:label="Colorize"
       id="filter840">
      <feComposite
         k4="0"
         k3="0"
         in2="SourceGraphic"
         operator="arithmetic"
         k1="0"
         k2="1"
         result="composite1"
         id="feComposite826" />
      <feColorMatrix
         in="composite1"
         values="1"
         type="saturate"
         result="colormatrix1"
         id="feColorMatrix828" />
      <feFlood
         flood-opacity="0"
         flood-color="rgb(54,146,231)"
         result="flood1"
         id="feFlood830" />
      <feBlend
         in="flood1"
         in2="colormatrix1"
         mode="multiply"
         result="blend1"
         id="feBlend832" />
      <feBlend
         in2="blend1"
         mode="screen"
         result="blend2"
         id="feBlend834" />
      <feColorMatrix
         in="blend2"
         values="1"
         type="saturate"
         result="colormatrix2"
         id="feColorMatrix836" />
      <feComposite
         in="colormatrix2"
         in2="SourceGraphic"
         operator="in"
         result="fbSourceGraphic"
         id="feComposite838" />
      <feColorMatrix
         result="fbSourceGraphicAlpha"
         in="fbSourceGraphic"
         values="0 0 0 -1 0 0 0 0 -1 0 0 0 0 -1 0 0 0 0 1 0"
         id="feColorMatrix842" />
      <feComposite
         k4="0"
         k3="0"
         in2="fbSourceGraphic"
         id="feComposite844"
         operator="arithmetic"
         k1="0"
         k2="1"
         result="composite1"
         in="fbSourceGraphic" />
      <feColorMatrix
         id="feColorMatrix846"
         in="composite1"
         values="1"
         type="saturate"
         result="colormatrix1" />
      <feFlood
         id="feFlood848"
         flood-opacity="0"
         flood-color="rgb(54,146,231)"
         result="flood1" />
      <feBlend
         in2="colormatrix1"
         id="feBlend850"
         in="flood1"
         mode="multiply"
         result="blend1" />
      <feBlend
         in2="blend1"
         id="feBlend852"
         mode="screen"
         result="blend2" />
      <feColorMatrix
         id="feColorMatrix854"
         in="blend2"
         values="1"
         type="saturate"
         result="colormatrix2" />
      <feComposite
         in2="fbSourceGraphic"
         id="feComposite856"
         in="colormatrix2"
         operator="in"
         result="composite2" />
    </filter>
  </defs>
  <path
     style="color:#000000;font-style:normal;font-variant:normal;font-weight:normal;font-stretch:normal;font-size:medium;line-height:normal;font-family:sans-serif;font-variant-ligatures:normal;font-variant-position:normal;font-variant-caps:normal;font-variant-numeric:normal;font-variant-alternates:normal;font-feature-settings:normal;text-indent:0;text-align:start;text-decoration:none;text-decoration-line:none;text-decoration-style:solid;text-decoration-color:#000000;letter-spacing:normal;word-spacing:normal;text-transform:none;writing-mode:lr-tb;direction:ltr;text-orientation:mixed;dominant-baseline:auto;baseline-shift:baseline;text-anchor:start;white-space:normal;shape-padding:0;clip-rule:nonzero;display:inline;overflow:visible;visibility:visible;opacity:1;isolation:auto;mix-blend-mode:normal;color-interpolation:sRGB;color-interpolation-filters:linearRGB;solid-color:#000000;solid-opacity:1;vector-effect:none;fill:#000000;fill-opacity:1;fill-rule:nonzero;stroke:none;stroke-width:2.07783437;stroke-linecap:butt;stroke-linejoin:round;stroke-miterlimit:4;stroke-dasharray:none;stroke-dashoffset:0;stroke-opacity:1;color-rendering:auto;image-rendering:auto;shape-rendering:auto;text-rendering:auto;enable-background:accumulate"
     d="M 41.943359 4 C 41.902649 4.0003179 41.862654 4.0027225 41.822266 4.0078125 C 38.924445 4.3508063 36.30293 4.8538544 33.783203 6.5605469 C 30.508613 6.3540893 27.588767 6.5419038 25 7.0429688 L 25 11.070312 C 27.568464 10.541395 30.347445 10.568449 33.261719 11.111328 C 33.506943 11.157158 33.759103 11.113958 33.974609 10.988281 C 35.476049 10.112525 37.00261 9.3437989 38.373047 8.8769531 L 37.570312 11.179688 C 37.469204 11.470059 37.502466 11.788784 37.660156 12.052734 L 48.351562 29.964844 C 48.123247 31.857779 47.291396 32.808129 46.433594 33.345703 C 45.816416 33.732481 45.558627 33.722701 45.25 33.785156 C 44.609709 32.58599 43.629405 31.294201 41.369141 29.115234 C 40.548803 28.324156 39.271552 27.467722 37.761719 26.445312 C 36.251884 25.422902 34.531459 24.268057 32.962891 23.052734 C 31.394322 21.837411 29.980867 20.552976 29.095703 19.353516 C 28.21054 18.154055 27.899828 17.151763 28.142578 16.279297 C 28.519631 14.945684 26.517678 14.38123 26.140625 15.714844 C 26.139843 15.717544 26.141402 15.719956 26.140625 15.722656 L 26.138672 15.722656 C 26.136372 15.730856 26.140972 15.737864 26.138672 15.746094 C 25.633963 17.542276 26.057983 19.345538 26.933594 20.951172 C 27.814528 22.566559 29.141587 24.049412 30.595703 25.419922 C 33.503937 28.160945 37.004019 30.510531 38.441406 31.863281 L 38.441406 31.865234 C 41.566014 34.804232 43.009149 37.017367 43.1875 37.363281 C 43.411305 37.797107 43.907236 38.016402 44.378906 37.890625 C 44.378906 37.890625 46.522819 37.333142 48.539062 35.996094 C 49.547182 35.32757 50.548628 34.453422 51.228516 33.285156 C 51.908405 32.116888 52.220474 30.626791 51.828125 29.005859 C 51.806595 28.915919 51.772976 28.831093 51.728516 28.75 L 41.716797 10.591797 L 42.957031 5.2753906 C 43.110084 4.6229714 42.61349 3.9993683 41.943359 4 z M 8.09375 29 C 8.1177612 29.285334 8.1269243 29.579784 8.1621094 29.857422 C 8.1627732 29.860122 8.1633325 29.862534 8.1640625 29.865234 C 10.681587 48.516794 35.962272 53.753781 44.722656 40.998047 C 44.758386 40.946027 44.804664 40.908088 44.839844 40.855469 C 45.55304 39.801021 44.108887 38.635201 43.228516 39.554688 C 37.208481 45.775675 27.637635 46.633843 20.291016 42.033203 C 15.62069 39.108527 12.479425 34.209324 11.886719 29 L 8.09375 29 z "
     transform="translate(-1,-1)"
     id="path2" />
  <path
     style="opacity:1;fill:#0337e7;fill-opacity:1;stroke-width:0.03196347;filter:url(#filter840)"
     inkscape:connector-curvature="0"
     d="m 38.722012,11.44353 v -1.15 q 0,-0.256 -0.159817,-0.4160002 -0.191781,-0.192 -0.415525,-0.192 h -2.908676 v -2.908 q 0,-0.224 -0.19178,-0.416 -0.159818,-0.16 -0.415526,-0.16 h -1.150684 q -0.255708,0 -0.415525,0.16 -0.191781,0.192 -0.191781,0.416 v 2.908 h -2.908676 q -0.223745,0 -0.415525,0.192 -0.159818,0.1600002 -0.159818,0.4160002 v 1.15 q 0,0.256 0.159818,0.416 0.19178,0.192 0.415525,0.192 h 2.908676 v 2.908 q 0,0.224 0.191781,0.416 0.159817,0.16 0.415525,0.16 h 1.150684 q 0.255708,0 0.415525,-0.16 0.191781,-0.192 0.191781,-0.416 v -2.908 h 2.908676 q 0.223744,0 0.415525,-0.192 0.159817,-0.16 0.159817,-0.416 z M 41.055346,6.4895298 V 15.24753 q 0,1.087 -0.767124,1.854 -0.767123,0.767 -1.853881,0.767 h -8.75799 q -1.086758,0 -1.853882,-0.767 -0.767123,-0.767 -0.767123,-1.854 V 6.4895298 q 0,-1.087 0.767123,-1.854 0.767124,-0.767 1.853882,-0.767 h 8.75799 q 1.086758,0 1.853881,0.767 0.767124,0.767 0.767124,1.854 z"
     id="path4566"
     transform="matrix(1.6071427,0,0,1.6071427,-44.231802,-2.9672787)"
     inkscape:export-xdpi="1366.5723"
     inkscape:export-ydpi="1366.5723" />
</svg>
