<?xml version="1.0" encoding="UTF-8" standalone="no"?>
<svg
   xmlns:dc="http://purl.org/dc/elements/1.1/"
   xmlns:cc="http://creativecommons.org/ns#"
   xmlns:rdf="http://www.w3.org/1999/02/22-rdf-syntax-ns#"
   xmlns:svg="http://www.w3.org/2000/svg"
   xmlns="http://www.w3.org/2000/svg"
   xmlns:sodipodi="http://sodipodi.sourceforge.net/DTD/sodipodi-0.dtd"
   xmlns:inkscape="http://www.inkscape.org/namespaces/inkscape"
   viewBox="-0.5 -0.5 51 51"
   version="1.1"
   id="svg4"
   sodipodi:docname="lichess-thick2.svg"
   inkscape:export-filename="C:\Users\Neca-ThinkPad\WebstormProjects\litags\public\images\lichess-thick2.png"
   inkscape:export-xdpi="60.235294"
   inkscape:export-ydpi="60.235294"
   inkscape:version="0.92.4 (5da689c313, 2019-01-14)">
  <metadata
     id="metadata10">
    <rdf:RDF>
      <cc:Work
         rdf:about="">
        <dc:format>image/svg+xml</dc:format>
        <dc:type
           rdf:resource="http://purl.org/dc/dcmitype/StillImage" />
        <dc:title></dc:title>
      </cc:Work>
    </rdf:RDF>
  </metadata>
  <defs
     id="defs8" />
  <sodipodi:namedview
     pagecolor="#ffffff"
     bordercolor="#666666"
     borderopacity="1"
     objecttolerance="10"
     gridtolerance="10"
     guidetolerance="10"
     inkscape:pageopacity="0"
     inkscape:pageshadow="2"
     inkscape:window-width="1920"
     inkscape:window-height="1017"
     id="namedview6"
     showgrid="false"
     inkscape:pagecheckerboard="true"
     inkscape:zoom="11.313709"
     inkscape:cx="6.3042978"
     inkscape:cy="22.306302"
     inkscape:window-x="1912"
     inkscape:window-y="-8"
     inkscape:window-maximized="1"
     inkscape:current-layer="svg4" />
  <path
     style="fill:#fbffff;fill-opacity:1;stroke:#ffffff;stroke-width:1.74947834;stroke-linejoin:round;stroke-opacity:1"
     d="M 37.207544,3.569993 C 34.119714,3.935634 31.563725,4.3590079 29.084715,6.1802148 7.9720083,4.6949077 2.5258809,19.344167 3.7260232,28.818468 6.1866647,47.056781 31.051128,51.929953 39.283299,39.609252 32.77174,46.341244 22.421825,47.264969 14.50806,42.306946 6.5942932,37.348924 2.6885823,27.093482 7.2276045,18.499169 11.767501,9.9048535 19.747749,7.0995664 28.524883,8.7353275 30.650498,7.4949486 33.095394,5.918668 35.22101,5.9475342 l -1.481809,4.2512318 11.154677,18.69318 c -0.384012,4.945776 -4.775203,5.346407 -4.775203,5.346407 -0.5021,-1.285868 -1.429323,-2.573484 -4.235487,-5.279928 -2.805289,-2.706443 -15.277321,-8.902221 -13.810383,-14.176899 -1.750354,6.094309 9.019436,12.37931 12.281339,15.45052 3.262777,3.070334 4.746335,5.283426 5.069114,5.909738 0,0 8.215551,-2.190346 6.856206,-7.808797 L 35.84645,9.405378 Z"
     id="path2"
     inkscape:connector-curvature="0" />
</svg>
