<?xml version="1.0" encoding="UTF-8" standalone="no"?>
<svg
        xmlns:dc="http://purl.org/dc/elements/1.1/"
        xmlns:cc="http://creativecommons.org/ns#"
        xmlns:rdf="http://www.w3.org/1999/02/22-rdf-syntax-ns#"
        xmlns="http://www.w3.org/2000/svg"
        xmlns:sodipodi="http://sodipodi.sourceforge.net/DTD/sodipodi-0.dtd"
        xmlns:inkscape="http://www.inkscape.org/namespaces/inkscape"
        version="1.1"
        width="45"
        height="45"
        id="svg4546"
        sodipodi:docname="litags_2.svg"
        inkscape:version="0.92.4 (5da689c313, 2019-01-14)"
        inkscape:export-filename="C:\Users\Neca-ThinkPad\WebstormProjects\litags\images\litags_icon128.png"
        inkscape:export-xdpi="273.06668"
        inkscape:export-ydpi="273.06668">
  <metadata
     id="metadata4552">
    <rdf:RDF>
      <cc:Work
         rdf:about="">
        <dc:format>image/svg+xml</dc:format>
        <dc:type
           rdf:resource="http://purl.org/dc/dcmitype/StillImage" />
        <dc:title></dc:title>
      </cc:Work>
    </rdf:RDF>
  </metadata>
  <defs
     id="defs4550">
    <filter
       style="color-interpolation-filters:sRGB;"
       inkscape:label="Colorize"
       id="filter840">
      <feComposite
         in2="SourceGraphic"
         operator="arithmetic"
         k1="0"
         k2="1"
         result="composite1"
         id="feComposite826" />
      <feColorMatrix
         in="composite1"
         values="1"
         type="saturate"
         result="colormatrix1"
         id="feColorMatrix828" />
      <feFlood
         flood-opacity="0"
         flood-color="rgb(54,146,231)"
         result="flood1"
         id="feFlood830" />
      <feBlend
         in="flood1"
         in2="colormatrix1"
         mode="multiply"
         result="blend1"
         id="feBlend832" />
      <feBlend
         in2="blend1"
         mode="screen"
         result="blend2"
         id="feBlend834" />
      <feColorMatrix
         in="blend2"
         values="1"
         type="saturate"
         result="colormatrix2"
         id="feColorMatrix836" />
      <feComposite
         in="colormatrix2"
         in2="SourceGraphic"
         operator="in"
         k2="1"
         result="fbSourceGraphic"
         id="feComposite838" />
      <feColorMatrix
         result="fbSourceGraphicAlpha"
         in="fbSourceGraphic"
         values="0 0 0 -1 0 0 0 0 -1 0 0 0 0 -1 0 0 0 0 1 0"
         id="feColorMatrix842" />
      <feComposite
         in2="fbSourceGraphic"
         id="feComposite844"
         operator="arithmetic"
         k1="0"
         k2="1"
         result="composite1"
         in="fbSourceGraphic" />
      <feColorMatrix
         id="feColorMatrix846"
         in="composite1"
         values="1"
         type="saturate"
         result="colormatrix1" />
      <feFlood
         id="feFlood848"
         flood-opacity="0"
         flood-color="rgb(54,146,231)"
         result="flood1" />
      <feBlend
         in2="colormatrix1"
         id="feBlend850"
         in="flood1"
         mode="multiply"
         result="blend1" />
      <feBlend
         in2="blend1"
         id="feBlend852"
         mode="screen"
         result="blend2" />
      <feColorMatrix
         id="feColorMatrix854"
         in="blend2"
         values="1"
         type="saturate"
         result="colormatrix2" />
      <feComposite
         in2="fbSourceGraphic"
         id="feComposite856"
         in="colormatrix2"
         operator="in"
         k2="1"
         result="composite2" />
    </filter>
  </defs>
  <sodipodi:namedview
     pagecolor="#ffffff"
     bordercolor="#666666"
     borderopacity="1"
     objecttolerance="10"
     gridtolerance="10"
     guidetolerance="10"
     inkscape:pageopacity="0"
     inkscape:pageshadow="2"
     inkscape:window-width="1680"
     inkscape:window-height="987"
     id="namedview4548"
     showgrid="false"
     inkscape:zoom="13.136473"
     inkscape:cx="15.481988"
     inkscape:cy="26.562058"
     inkscape:window-x="1912"
     inkscape:window-y="13"
     inkscape:window-maximized="1"
     inkscape:current-layer="layer1" />
  <g
     transform="matrix(0.0456621,0,0,-0.0456621,22.454737,22.733062)"
     id="g4568" />
  <g
     inkscape:groupmode="layer"
     id="layer2"
     inkscape:label="horse">
    <g
       style="opacity:1;fill:none;fill-opacity:1;fill-rule:evenodd;stroke:#000000;stroke-width:1.5;stroke-linecap:round;stroke-linejoin:round;stroke-miterlimit:4;stroke-dasharray:none;stroke-opacity:1"
       id="g4544"
       transform="matrix(1.0666667,0,0,1.067672,-0.53333103,-2.5076337)"
       inkscape:export-xdpi="1366.5723"
       inkscape:export-ydpi="1366.5723">
      <path
         d="m 19.236911,14.131456 c 9.39478,0.894741 14.763226,7.157928 14.315856,25.947488 H 12.973724 c 0,-8.052669 8.94741,-5.815816 7.157928,-18.78956"
         style="fill:#ffffff;stroke:#000000;stroke-width:1.34211147"
         id="path4536"
         inkscape:connector-curvature="0" />
      <path
         d="m 21.026393,21.289384 c 0.340002,2.603696 -4.965812,6.594241 -7.157928,8.052668 -2.684223,1.789482 -2.523169,3.883176 -4.473705,3.578964 -0.9323197,-0.841056 1.261585,-2.720012 0,-2.684223 -0.8947406,0 0.170001,1.100532 -0.8947406,1.789482 -0.894741,0 -3.5816481,0.894741 -3.5789639,-3.578963 0,-1.789482 5.3684455,-10.736892 5.3684455,-10.736892 0,0 1.691061,-1.700008 1.789482,-3.131594 -0.653161,-0.889372 -0.44737,-1.789482 -0.44737,-2.684223 0.894741,-0.89474 2.684223,2.236853 2.684223,2.236853 h 1.789482 c 0,0 0.697898,-1.782324 2.236852,-2.684223 0.894741,0 0.894741,2.684223 0.894741,2.684223"
         style="fill:#ffffff;stroke:#000000;stroke-width:1.34211147"
         id="path4538"
         inkscape:connector-curvature="0" />
      <path
         d="m 8.0526489,27.999941 a 0.4473705,0.4473705 0 1 1 -0.894741,0 0.4473705,0.4473705 0 1 1 0.894741,0 z"
         style="fill:#000000;stroke:#000000;stroke-width:1.34211147"
         id="path4540"
         inkscape:connector-curvature="0" />
      <path
         d="m 12.913777,19.276216 a 0.44736066,1.3420819 30.000728 1 1 -0.774846,-0.44737 0.44736066,1.3420819 30.000728 1 1 0.774846,0.44737 z"
         style="fill:#000000;stroke:#000000;stroke-width:1.3420819"
         id="path4542"
         inkscape:connector-curvature="0" />
    </g>
    <rect
       style="opacity:1;fill:#ffffff;fill-opacity:1;stroke-width:1"
       id="rect883"
       width="12.294015"
       height="12.065644"
       x="27.161392"
       y="8.5487776"
       ry="1.61483"
       inkscape:export-xdpi="1366.5723"
       inkscape:export-ydpi="1366.5723" />
  </g>
  <g
     inkscape:groupmode="layer"
     id="layer1"
     inkscape:label="plus">
    <path
       style="opacity:1;fill:#0337e7;fill-opacity:1;stroke-width:0.03196347;filter:url(#filter840)"
       inkscape:connector-curvature="0"
       d="m 38.722012,11.44353 v -1.15 q 0,-0.256 -0.159817,-0.4160002 -0.191781,-0.192 -0.415525,-0.192 h -2.908676 v -2.908 q 0,-0.224 -0.19178,-0.416 -0.159818,-0.16 -0.415526,-0.16 h -1.150684 q -0.255708,0 -0.415525,0.16 -0.191781,0.192 -0.191781,0.416 v 2.908 h -2.908676 q -0.223745,0 -0.415525,0.192 -0.159818,0.1600002 -0.159818,0.4160002 v 1.15 q 0,0.256 0.159818,0.416 0.19178,0.192 0.415525,0.192 h 2.908676 v 2.908 q 0,0.224 0.191781,0.416 0.159817,0.16 0.415525,0.16 h 1.150684 q 0.255708,0 0.415525,-0.16 0.191781,-0.192 0.191781,-0.416 v -2.908 h 2.908676 q 0.223744,0 0.415525,-0.192 0.159817,-0.16 0.159817,-0.416 z M 41.055346,6.4895298 V 15.24753 q 0,1.087 -0.767124,1.854 -0.767123,0.767 -1.853881,0.767 h -8.75799 q -1.086758,0 -1.853882,-0.767 -0.767123,-0.767 -0.767123,-1.854 V 6.4895298 q 0,-1.087 0.767123,-1.854 0.767124,-0.767 1.853882,-0.767 h 8.75799 q 1.086758,0 1.853881,0.767 0.767124,0.767 0.767124,1.854 z"
       id="path4566"
       transform="matrix(1.0714285,0,0,1.0714285,-3.4878689,2.5773693)"
       inkscape:export-xdpi="1366.5723"
       inkscape:export-ydpi="1366.5723" />
  </g>
</svg>
