<?xml version="1.0" encoding="UTF-8" standalone="no"?>
<svg
   xmlns:dc="http://purl.org/dc/elements/1.1/"
   xmlns:cc="http://creativecommons.org/ns#"
   xmlns:rdf="http://www.w3.org/1999/02/22-rdf-syntax-ns#"
   xmlns:svg="http://www.w3.org/2000/svg"
   xmlns="http://www.w3.org/2000/svg"
   xmlns:sodipodi="http://sodipodi.sourceforge.net/DTD/sodipodi-0.dtd"
   xmlns:inkscape="http://www.inkscape.org/namespaces/inkscape"
   viewBox="-1 -1 52 52"
   version="1.1"
   id="svg4"
   sodipodi:docname="litags_icon.svg"
   inkscape:version="0.92.4 (5da689c313, 2019-01-14)">
  <sodipodi:namedview
     pagecolor="#ffffff"
     bordercolor="#666666"
     borderopacity="1"
     objecttolerance="10"
     gridtolerance="10"
     guidetolerance="10"
     inkscape:pageopacity="0"
     inkscape:pageshadow="2"
     inkscape:window-width="1920"
     inkscape:window-height="1017"
     id="namedview23"
     showgrid="false"
     inkscape:zoom="9.0769233"
     inkscape:cx="4.5393571"
     inkscape:cy="41.675297"
     inkscape:window-x="1912"
     inkscape:window-y="-8"
     inkscape:window-maximized="1"
     inkscape:current-layer="svg4" />
  <metadata
     id="metadata10">
    <rdf:RDF>
      <cc:Work
         rdf:about="">
        <dc:format>image/svg+xml</dc:format>
        <dc:type
           rdf:resource="http://purl.org/dc/dcmitype/StillImage" />
        <dc:title />
      </cc:Work>
    </rdf:RDF>
  </metadata>
  <defs
     id="defs8">
    <filter
       id="filter840"
       style="color-interpolation-filters:sRGB">
      <feComposite
         id="feComposite826"
         result="composite1"
         k2="1"
         k1="0"
         operator="arithmetic"
         in2="SourceGraphic"
         k3="0"
         k4="0" />
      <feColorMatrix
         id="feColorMatrix828"
         result="colormatrix1"
         type="saturate"
         values="1"
         in="composite1" />
      <feFlood
         id="feFlood830"
         result="flood1"
         flood-color="rgb(54,146,231)"
         flood-opacity="0" />
      <feBlend
         id="feBlend832"
         result="blend1"
         mode="multiply"
         in2="colormatrix1"
         in="flood1" />
      <feBlend
         id="feBlend834"
         result="blend2"
         mode="screen"
         in2="blend1" />
      <feColorMatrix
         id="feColorMatrix836"
         result="colormatrix2"
         type="saturate"
         values="1"
         in="blend2" />
      <feComposite
         id="feComposite838"
         result="fbSourceGraphic"
         operator="in"
         in2="SourceGraphic"
         in="colormatrix2" />
      <feColorMatrix
         id="feColorMatrix842"
         values="0 0 0 -1 0 0 0 0 -1 0 0 0 0 -1 0 0 0 0 1 0"
         in="fbSourceGraphic"
         result="fbSourceGraphicAlpha" />
      <feComposite
         in="fbSourceGraphic"
         result="composite1"
         k2="1"
         k1="0"
         operator="arithmetic"
         id="feComposite844"
         in2="fbSourceGraphic"
         k3="0"
         k4="0" />
      <feColorMatrix
         result="colormatrix1"
         type="saturate"
         values="1"
         in="composite1"
         id="feColorMatrix846" />
      <feFlood
         result="flood1"
         flood-color="rgb(54,146,231)"
         flood-opacity="0"
         id="feFlood848" />
      <feBlend
         result="blend1"
         mode="multiply"
         in="flood1"
         id="feBlend850"
         in2="colormatrix1" />
      <feBlend
         result="blend2"
         mode="screen"
         id="feBlend852"
         in2="blend1" />
      <feColorMatrix
         result="colormatrix2"
         type="saturate"
         values="1"
         in="blend2"
         id="feColorMatrix854" />
      <feComposite
         result="composite2"
         operator="in"
         in="colormatrix2"
         id="feComposite856"
         in2="fbSourceGraphic" />
    </filter>
  </defs>
  <path
     id="path2-2"
     d="M 18.642855,4.0000003 H 1.3571461 C 0.055802,4.0000003 -1,5.0558023 -1,6.3571464 V 23.642854 C -1,24.944198 0.055802,26 1.3571461,26 H 18.642855 c 1.301344,0 2.357146,-1.055802 2.357146,-2.357146 V 6.3571464 c 0,-1.3013441 -1.055802,-2.3571461 -2.357146,-2.3571461 z M 17.071431,16.375 c 0,0.324104 -0.26518,0.589284 -0.589284,0.589284 h -4.517862 v 4.517862 c 0,0.324104 -0.265181,0.589285 -0.589285,0.589285 H 8.6250002 c -0.324104,0 -0.5892846,-0.265181 -0.5892846,-0.589285 V 16.964284 H 3.5178541 c -0.324104,0 -0.5892846,-0.26518 -0.5892846,-0.589284 v -2.75 c 0,-0.324104 0.2651806,-0.589284 0.5892846,-0.589284 H 8.0357156 V 8.5178545 c 0,-0.3241041 0.2651806,-0.5892847 0.5892846,-0.5892847 H 11.375 c 0.324104,0 0.589285,0.2651806 0.589285,0.5892847 v 4.5178615 h 4.517862 c 0.324104,0 0.589284,0.26518 0.589284,0.589284 z"
     style="fill:#0385e7;stroke-width:0.04910714;fill-opacity:1" />
  <path
     style="color:#000000;font-style:normal;font-variant:normal;font-weight:normal;font-stretch:normal;font-size:medium;line-height:normal;font-family:sans-serif;font-variant-ligatures:normal;font-variant-position:normal;font-variant-caps:normal;font-variant-numeric:normal;font-variant-alternates:normal;font-feature-settings:normal;text-indent:0;text-align:start;text-decoration:none;text-decoration-line:none;text-decoration-style:solid;text-decoration-color:#000000;letter-spacing:normal;word-spacing:normal;text-transform:none;writing-mode:lr-tb;direction:ltr;text-orientation:mixed;dominant-baseline:auto;baseline-shift:baseline;text-anchor:start;white-space:normal;shape-padding:0;clip-rule:nonzero;display:inline;overflow:visible;visibility:visible;opacity:1;isolation:auto;mix-blend-mode:normal;color-interpolation:sRGB;color-interpolation-filters:linearRGB;solid-color:#000000;solid-opacity:1;vector-effect:none;fill:#000000;fill-opacity:1;fill-rule:nonzero;stroke:none;stroke-width:2.19722652;stroke-linecap:butt;stroke-linejoin:round;stroke-miterlimit:4;stroke-dasharray:none;stroke-dashoffset:0;stroke-opacity:1;color-rendering:auto;image-rendering:auto;shape-rendering:auto;text-rendering:auto;enable-background:accumulate"
     d="M 41.695312 2.9824219 C 41.652282 2.9824987 41.60913 2.9851144 41.566406 2.9902344 C 38.611823 3.3400999 35.929673 3.8567726 33.353516 5.5976562 C 29.844552 5.3771732 26.740734 5.6048158 24 6.1757812 L 24 10.353516 C 26.727149 9.7242896 29.700714 9.7362435 32.824219 10.318359 C 33.083385 10.366778 33.35032 10.320195 33.578125 10.1875 C 35.085591 9.3078357 36.611562 8.5400829 37.988281 8.0566406 L 37.195312 10.337891 C 37.088225 10.644773 37.122623 10.982535 37.289062 11.261719 L 48.199219 29.544922 C 47.965329 31.459433 47.126218 32.417698 46.259766 32.960938 C 45.647278 33.344948 45.402363 33.332594 45.085938 33.398438 C 44.427284 32.175477 43.426775 30.855091 41.134766 28.644531 C 40.292326 27.831774 38.988917 26.958486 37.447266 25.914062 C 35.905615 24.86964 34.150913 23.689552 32.550781 22.449219 C 30.950648 21.208884 29.507594 19.898079 28.607422 18.677734 C 27.707249 17.45739 27.394952 16.446658 27.638672 15.570312 C 28.00747 14.1771 25.937599 13.594201 25.523438 14.974609 C 25.522686 14.977209 25.524185 14.979822 25.523438 14.982422 L 25.521484 14.982422 C 25.519484 14.989722 25.523484 14.996656 25.521484 15.003906 C 25.001202 16.851249 25.438261 18.70278 26.335938 20.349609 C 27.238398 22.005209 28.597691 23.522363 30.083984 24.923828 C 33.05657 27.726759 36.629939 30.131417 38.091797 31.507812 C 41.279624 34.507616 42.754459 36.771436 42.931641 37.115234 C 43.168359 37.57425 43.692449 37.805189 44.191406 37.671875 C 44.191406 37.671875 46.38429 37.100417 48.449219 35.730469 C 49.481684 35.045495 50.510741 34.149562 51.208984 32.949219 C 51.907226 31.748878 52.224991 30.217275 51.822266 28.552734 C 51.799346 28.458094 51.765698 28.36656 51.71875 28.28125 L 41.501953 9.7460938 L 42.765625 4.3300781 C 42.926152 3.6407146 42.403118 2.981893 41.695312 2.9824219 z M 7.1308594 29 C 7.1459348 29.142991 7.1481554 29.294553 7.1660156 29.435547 C 7.1666548 29.438147 7.1672688 29.440759 7.1679688 29.443359 C 9.7420733 48.522663 35.582707 53.890228 44.554688 40.839844 C 44.555788 40.838344 44.557594 40.837437 44.558594 40.835938 C 44.596154 40.781258 44.644669 40.738926 44.681641 40.683594 C 45.428687 39.570112 43.909756 38.34386 42.978516 39.308594 C 36.844704 45.650049 27.093981 46.528266 19.607422 41.837891 C 14.982398 38.940306 11.822714 34.141244 11.09375 29 L 7.1308594 29 z "
     transform="translate(-1,-1)"
     id="path2" />
</svg>
