<?xml version="1.0" encoding="UTF-8" standalone="no"?>
<svg
   xmlns:dc="http://purl.org/dc/elements/1.1/"
   xmlns:cc="http://creativecommons.org/ns#"
   xmlns:rdf="http://www.w3.org/1999/02/22-rdf-syntax-ns#"
   xmlns:svg="http://www.w3.org/2000/svg"
   xmlns="http://www.w3.org/2000/svg"
   xmlns:sodipodi="http://sodipodi.sourceforge.net/DTD/sodipodi-0.dtd"
   xmlns:inkscape="http://www.inkscape.org/namespaces/inkscape"
   version="1.1"
   width="45"
   height="45"
   id="svg4546"
   sodipodi:docname="litags.svg"
   inkscape:version="0.92.4 (5da689c313, 2019-01-14)">
  <metadata
     id="metadata4552">
    <rdf:RDF>
      <cc:Work
         rdf:about="">
        <dc:format>image/svg+xml</dc:format>
        <dc:type
           rdf:resource="http://purl.org/dc/dcmitype/StillImage" />
        <dc:title></dc:title>
      </cc:Work>
    </rdf:RDF>
  </metadata>
  <defs
     id="defs4550" />
  <sodipodi:namedview
     pagecolor="#ffffff"
     bordercolor="#666666"
     borderopacity="1"
     objecttolerance="10"
     gridtolerance="10"
     guidetolerance="10"
     inkscape:pageopacity="0"
     inkscape:pageshadow="2"
     inkscape:window-width="1680"
     inkscape:window-height="987"
     id="namedview4548"
     showgrid="false"
     inkscape:zoom="6.5682363"
     inkscape:cx="5.2383514"
     inkscape:cy="39.713316"
     inkscape:window-x="1912"
     inkscape:window-y="13"
     inkscape:window-maximized="1"
     inkscape:current-layer="layer1" />
  <g
     transform="matrix(0.0456621,0,0,-0.0456621,22.454737,22.733062)"
     id="g4568" />
  <g
     inkscape:groupmode="layer"
     id="layer2"
     inkscape:label="horse">
    <g
       style="opacity:1;fill:none;fill-opacity:1;fill-rule:evenodd;stroke:#000000;stroke-width:1.5;stroke-linecap:round;stroke-linejoin:round;stroke-miterlimit:4;stroke-dasharray:none;stroke-opacity:1"
       id="g4544"
       transform="translate(-1.2499977,1.25)">
      <path
         d="m 19.236911,14.131456 c 9.39478,0.894741 14.763226,7.157928 14.315856,25.947488 H 12.973724 c 0,-8.052669 8.94741,-5.815816 7.157928,-18.78956"
         style="fill:#ffffff;stroke:#000000;stroke-width:1.34211147"
         id="path4536"
         inkscape:connector-curvature="0" />
      <path
         d="m 21.026393,21.289384 c 0.340002,2.603696 -4.965812,6.594241 -7.157928,8.052668 -2.684223,1.789482 -2.523169,3.883176 -4.473705,3.578964 -0.9323197,-0.841056 1.261585,-2.720012 0,-2.684223 -0.8947406,0 0.170001,1.100532 -0.8947406,1.789482 -0.894741,0 -3.5816481,0.894741 -3.5789639,-3.578963 0,-1.789482 5.3684455,-10.736892 5.3684455,-10.736892 0,0 1.691061,-1.700008 1.789482,-3.131594 -0.653161,-0.889372 -0.44737,-1.789482 -0.44737,-2.684223 0.894741,-0.89474 2.684223,2.236853 2.684223,2.236853 h 1.789482 c 0,0 0.697898,-1.782324 2.236852,-2.684223 0.894741,0 0.894741,2.684223 0.894741,2.684223"
         style="fill:#ffffff;stroke:#000000;stroke-width:1.34211147"
         id="path4538"
         inkscape:connector-curvature="0" />
      <path
         d="m 8.0526489,27.999941 a 0.4473705,0.4473705 0 1 1 -0.894741,0 0.4473705,0.4473705 0 1 1 0.894741,0 z"
         style="fill:#000000;stroke:#000000;stroke-width:1.34211147"
         id="path4540"
         inkscape:connector-curvature="0" />
      <path
         d="m 12.913777,19.276216 a 0.44736066,1.3420819 30.000728 1 1 -0.774846,-0.44737 0.44736066,1.3420819 30.000728 1 1 0.774846,0.44737 z"
         style="fill:#000000;stroke:#000000;stroke-width:1.3420819"
         id="path4542"
         inkscape:connector-curvature="0" />
    </g>
  </g>
  <g
     inkscape:groupmode="layer"
     id="layer1"
     inkscape:label="plus">
    <path
       style="fill:currentColor;stroke-width:0.03652968"
       inkscape:connector-curvature="0"
       d="M 40.333333,10.657534 V 9.342466 q 0,-0.292237 -0.182648,-0.474886 Q 39.931506,8.648402 39.675799,8.648402 H 36.351598 V 5.3242013 q 0,-0.2557078 -0.219178,-0.4748859 Q 35.949771,4.666667 35.657534,4.666667 h -1.315068 q -0.292238,0 -0.474886,0.1826484 -0.219178,0.2191781 -0.219178,0.4748859 V 8.648402 h -3.324201 q -0.255708,0 -0.474886,0.219178 -0.182649,0.182649 -0.182649,0.474886 v 1.315068 q 0,0.292238 0.182649,0.474887 0.219178,0.219177 0.474886,0.219177 h 3.324201 v 3.324201 q 0,0.255708 0.219178,0.474886 0.182648,0.182649 0.474886,0.182649 h 1.315068 q 0.292237,0 0.474886,-0.182649 0.219178,-0.219178 0.219178,-0.474886 v -3.324201 h 3.324201 q 0.255707,0 0.474886,-0.219177 0.182648,-0.182649 0.182648,-0.474887 z M 43,4.9954342 V 15.004566 q 0,1.242009 -0.876713,2.118722 Q 41.246575,18 40.004566,18 H 29.995434 Q 28.753425,18 27.876712,17.123288 27,16.246575 27,15.004566 V 4.9954342 Q 27,3.753425 27.876712,2.8767127 28.753425,2.0000004 29.995434,2.0000004 h 10.009132 q 1.242009,0 2.118721,0.8767123 Q 43,3.753425 43,4.9954342 Z"
       id="path4566" />
  </g>
</svg>
